<svg width="561" height="509" viewBox="0 0 561 509" fill="none" xmlns="http://www.w3.org/2000/svg">
<g filter="url(#filter0_d)">
<path d="M532.191 284.85L218.936 465.548C212.658 469.313 204.497 469.313 198.219 465.548L63.8773 388.375C60.7384 386.493 58.2274 383.983 56.3441 380.846C54.4608 377.709 53.833 374.572 53.833 370.807V251.596L347 165.012C364.577 154.973 385.922 154.973 403.499 165.012L532.191 284.85Z" fill="#181B21"/>
<path d="M550.396 185.092V252.854C550.396 266.03 543.491 277.951 532.191 284.853L218.936 465.551C212.658 469.316 204.497 469.316 198.219 465.551C198.847 465.551 202.614 466.806 204.497 466.179C208.891 464.924 208.891 459.904 208.891 456.14V382.104C208.891 364.536 200.103 348.85 186.292 338.811C185.036 338.184 183.781 336.929 182.525 336.302L63.8773 268.54C56.9718 264.775 53.833 258.501 53.833 251.599C53.833 244.697 56.9718 237.796 63.8773 233.404L97.7767 213.954L185.664 163.132L232.119 136.153L328.795 80.3119L347.628 69.6457C359.555 62.744 372.738 60.8617 385.922 62.744C392.199 63.9989 398.477 65.8811 404.127 69.6457L439.282 89.7233L524.658 138.663C540.352 148.701 550.396 166.269 550.396 185.092Z" fill="#515457"/>
<path d="M239.024 136.146V405.939H208.264V382.097C208.264 364.529 199.475 348.844 185.664 338.805V163.126L232.119 136.146H239.024Z" fill="#65686B"/>
<path d="M438.654 90.3484V310.575H385.294V63.3691C391.572 64.624 397.849 66.5063 403.499 70.2708L438.654 90.3484Z" fill="#65686B"/>
<path d="M500.175 179.446L439.909 213.955L385.294 245.326L339.467 271.678L285.479 303.049L269.157 313.088L239.652 296.147L185.664 264.776L155.531 247.208L151.137 244.698L119.121 226.503L103.427 217.092H102.799L98.4044 213.955H97.7766L98.4044 213.327L102.799 210.817L103.427 189.485L185.664 141.801L239.652 110.429L285.479 84.0775L328.795 58.9805L338.839 86.5872L339.467 87.2146L350.139 92.8615L353.905 94.7437L385.294 113.566L439.909 144.938L500.175 179.446Z" fill="#ECECEC"/>
<path d="M239.652 110.424V296.142L185.664 264.771V141.795L239.652 110.424Z" fill="#F2F2F2"/>
<path d="M339.466 87.2146V271.678L285.479 303.049V84.0775L328.794 58.9805L338.839 86.5872L339.466 87.2146Z" fill="#F2F2F2"/>
<path d="M439.91 144.934V213.951L385.294 245.322V113.562L439.91 144.934Z" fill="#F2F2F2"/>
<path d="M338.84 40.1599V86.5894V100.393L289.246 128.627L152.393 207.683L119.749 226.505L98.405 213.957V213.329V178.821C98.405 178.194 98.405 176.939 98.405 176.311C98.405 175.056 98.405 173.802 99.0328 172.547C99.0328 171.919 99.6606 171.292 99.6606 170.664C100.288 168.155 101.544 165.645 102.799 163.135C104.683 159.998 106.566 157.489 109.705 154.979C110.96 154.351 112.216 153.097 112.844 152.469C113.471 151.842 114.099 151.842 114.727 151.214L149.254 131.764L152.393 129.882L166.204 122.353L285.48 53.3358L289.246 51.4536L324.401 31.3759C326.284 30.1211 328.168 30.1211 330.051 30.1211C330.679 30.1211 330.679 30.1211 331.306 30.1211C331.934 30.1211 331.934 30.1211 332.562 30.7485C333.19 31.3759 333.818 31.3759 334.445 32.0034C335.073 32.0034 335.073 32.6308 335.701 32.6308L336.329 33.2582C337.584 35.1405 338.84 37.6502 338.84 40.1599Z" fill="#2B2E34"/>
<path d="M285.479 53.332V129.878L148.626 208.934V131.76L152.393 129.878L165.576 121.721L285.479 53.332Z" fill="#64666B"/>
<path d="M336.329 33.2582C333.818 32.6308 331.934 33.2582 329.423 34.5131L119.749 154.351C109.705 159.998 103.427 170.664 103.427 182.586V210.82V215.212V217.094L102.799 216.467L98.405 213.957V213.329V178.821C98.405 178.194 98.405 176.939 98.405 176.311C98.405 175.056 98.405 173.802 99.0328 172.547C99.0328 171.919 99.6606 171.292 99.6606 170.664C100.288 168.155 101.544 165.645 102.799 163.135C104.683 159.998 106.566 157.489 109.705 154.979C110.96 154.351 112.216 153.097 112.844 152.469C113.471 151.842 114.099 151.842 114.727 151.214L166.204 121.725L324.401 31.3759C326.284 30.1211 328.168 30.1211 330.051 30.1211C330.679 30.1211 330.679 30.1211 331.306 30.1211C331.934 30.1211 331.934 30.1211 332.562 30.7485C333.19 31.3759 333.818 31.3759 334.445 32.0034C335.073 32.0034 335.073 32.6308 335.701 32.6308C335.701 33.2582 336.329 33.2582 336.329 33.2582Z" fill="url(#paint0_linear)"/>
<path d="M289.245 0V128.622L152.392 207.678V79.0556L289.245 0Z" fill="#F1F1F1"/>
<path d="M350.139 92.8621L338.839 99.7638L119.121 226.504L108.448 220.23L338.839 86.5879L350.139 92.8621Z" fill="#64666B"/>
<path d="M550.397 185.092V252.854C550.397 258.501 549.141 264.148 546.63 268.54L206.381 464.924C208.892 463.041 208.264 459.277 208.264 456.14V382.104C208.264 377.712 207.636 373.32 206.381 369.555L272.296 331.282L502.686 198.268L547.886 171.916C549.769 176.308 550.397 180.7 550.397 185.092Z" fill="#404348"/>
<path d="M550.397 191.99V214.578L208.264 411.589V389.002L550.397 191.99Z" fill="#AFB0B1"/>
<path d="M493.897 218.971L297.406 331.907C282.34 340.691 275.434 339.436 272.923 331.28L503.313 198.266C504.569 205.795 501.43 214.579 493.897 218.971Z" fill="#181B21"/>
<path d="M510.847 251.596V296.77L264.135 439.196L256.602 444.215V398.413L480.087 269.164L510.847 251.596Z" fill="#515457"/>
<path d="M547.258 268.543C544.119 274.817 539.097 280.464 532.192 284.229L510.848 296.777L256.602 444.222L219.564 465.555C213.286 469.319 205.125 469.319 198.848 465.555C199.475 465.555 203.242 466.809 205.125 466.182C205.753 466.182 207.009 465.555 207.636 464.927L257.23 436.066L512.103 289.248L547.258 268.543Z" fill="#14181E"/>
<path d="M207.008 369.554C204.497 360.143 199.475 351.359 192.57 344.457L534.703 146.818C541.608 153.72 546.63 162.504 549.141 171.915L207.008 369.554Z" fill="#797A7E"/>
<path d="M510.848 289.869L478.204 270.418L510.848 251.596V289.869Z" fill="#11141A"/>
<path d="M551.024 326.891L507.081 351.988L377.133 427.279L326.284 456.768C316.24 462.415 303.684 462.415 293.64 456.768L264.135 439.2L256.602 434.808V398.418L480.714 269.168L504.57 282.971L511.475 287.363L551.024 310.578C557.302 313.715 557.302 323.127 551.024 326.891Z" fill="#515457"/>
<path d="M551.024 321.246L326.284 450.496C316.24 456.143 303.684 456.143 293.64 450.496L264.135 433.556L256.602 429.164V435.438L264.135 439.202L293.64 456.143C303.684 461.79 316.24 461.79 326.284 456.143L551.024 326.893C555.419 324.384 556.674 319.364 555.419 315.6C554.163 317.482 552.908 319.364 551.024 321.246Z" fill="#2B2E34"/>
<path d="M503.941 282.971L448.07 315.597L439.909 319.989L427.982 326.891L406.638 338.812L400.988 341.949L395.338 345.086L389.688 348.851L387.805 350.106L386.549 350.733L385.294 351.361L384.666 351.988L383.41 352.616L382.783 353.243L381.527 353.87H380.899L379.644 354.498L378.388 355.125L376.505 356.38L370.855 359.517L364.577 363.282L358.927 366.419L337.583 378.34L325.656 385.242L317.495 389.634L255.974 425.397V398.418L294.267 376.458L302.428 372.066L319.378 362.027L333.817 353.87L341.978 349.478L344.489 348.224L352.022 343.832L353.277 343.204L357.044 340.694L358.3 340.067L360.183 338.812L361.438 338.185L365.205 335.675L366.461 335.048L373.994 330.656L376.505 329.401L384.666 325.009L399.104 316.225L416.054 306.186L424.215 301.794L480.086 269.168L503.941 282.971Z" fill="#64666B"/>
<path d="M208.891 311.832C208.891 312.46 208.891 312.46 208.891 313.087C208.891 313.715 208.891 313.715 208.264 314.342C206.38 316.852 201.358 318.734 196.336 318.734C191.942 318.734 188.803 317.479 186.92 315.597C186.92 314.969 186.292 314.969 186.292 314.342C186.292 313.715 185.664 313.715 185.664 313.087V312.46C185.664 311.832 185.664 311.832 185.664 311.205C185.664 310.577 186.292 309.95 186.292 308.695C188.175 305.558 193.197 303.676 198.847 303.676C201.986 303.676 205.125 304.931 207.008 306.813C208.264 308.068 209.519 309.323 209.519 310.577C208.891 310.577 208.891 311.205 208.891 311.832Z" fill="#181B21"/>
<path d="M208.891 311.837C208.891 312.464 208.891 312.464 208.891 313.092C208.891 313.719 208.891 313.719 208.264 314.346C206.38 316.856 201.358 318.738 196.336 318.738C191.942 318.738 188.803 317.484 186.92 315.601C186.92 314.974 186.292 314.974 186.292 314.346C186.292 313.719 185.664 313.719 185.664 313.092V312.464V311.837C185.664 311.209 186.292 310.582 186.292 309.954C188.175 307.445 193.197 305.562 198.847 305.562C201.986 305.562 205.125 306.817 207.008 308.072C208.264 308.7 208.891 309.954 209.519 311.209C208.891 310.582 208.891 311.209 208.891 311.837Z" fill="#3E4046"/>
<path d="M201.359 308.692C199.475 307.438 196.337 307.438 193.826 307.438L194.453 308.065C196.337 308.065 198.848 308.065 201.359 308.692C201.987 309.947 202.614 310.575 202.614 311.829C202.614 312.457 201.987 313.712 200.731 314.339C198.22 315.594 194.453 315.594 191.942 313.712C191.314 313.084 190.687 312.457 190.059 311.829C190.059 311.202 190.059 310.575 190.687 310.575L190.059 309.947C189.431 310.575 189.431 311.202 189.431 311.829C189.431 312.457 190.059 313.712 191.314 314.339C192.57 314.967 194.453 315.594 195.709 315.594C197.592 315.594 198.848 315.594 200.103 314.967C201.359 314.339 201.986 313.084 201.986 312.457C203.242 310.575 202.614 309.32 201.359 308.692Z" fill="#DAEBE8"/>
<path d="M197.593 312.457L190.059 308.065L190.687 307.438L198.22 311.829L197.593 312.457Z" fill="#DAEBE8"/>
<path d="M272.924 331.279C270.413 321.868 265.391 313.084 258.485 306.182L370.856 240.302L489.504 173.168C496.409 180.07 501.431 188.854 503.942 198.265L272.924 331.279Z" fill="#C6C7C8"/>
<path d="M139.209 284.85L151.764 277.321C153.02 276.693 153.02 275.438 151.137 274.183L146.742 271.674C145.487 271.046 142.976 271.046 141.72 271.674L129.165 279.203C127.909 279.83 127.909 281.085 129.793 282.34L134.187 284.85C135.442 285.477 137.954 285.477 139.209 284.85Z" fill="#181B21"/>
<path d="M136.698 284.853C136.07 284.853 134.815 284.853 134.187 284.226L129.793 281.716C129.165 281.716 129.165 281.089 129.165 281.089C129.165 281.089 129.165 281.089 129.793 280.461L142.348 272.932C142.976 272.932 143.604 272.305 144.231 272.305C144.859 272.305 146.115 272.305 146.742 272.932L151.137 276.069C151.765 276.069 151.765 276.697 151.765 276.697C151.765 276.697 151.765 276.697 151.137 277.324L138.582 284.853C137.954 284.853 137.326 284.853 136.698 284.853Z" fill="#3E4046"/>
<path d="M154.903 293.635L167.459 286.106C168.714 285.478 168.714 284.223 166.831 282.969L162.436 280.459C161.181 279.831 158.67 279.831 157.414 280.459L144.859 287.988C143.603 288.615 143.603 289.87 145.487 291.125L149.881 293.635C151.137 294.262 153.648 294.89 154.903 293.635Z" fill="#181B21"/>
<path d="M152.392 294.265C151.765 294.265 150.509 294.265 149.881 293.638L145.487 291.128C144.859 291.128 144.859 290.501 144.859 290.501C144.859 290.501 144.859 290.501 145.487 289.873L158.042 282.344C158.67 282.344 159.298 281.717 159.926 281.717C160.553 281.717 161.809 281.717 162.437 282.344L166.831 284.854C167.459 284.854 167.459 285.481 167.459 285.481C167.459 285.481 167.459 285.481 166.831 286.109L154.276 293.638C153.648 293.638 153.02 294.265 152.392 294.265Z" fill="#3E4046"/>
<path d="M170.598 303.047L183.153 295.518C184.408 294.89 184.408 293.635 182.525 292.381L178.131 289.871C176.875 289.244 174.364 289.244 173.109 289.871L160.553 297.4C159.298 298.027 159.298 299.282 161.181 300.537L165.575 303.047C166.831 303.674 169.342 303.674 170.598 303.047Z" fill="#181B21"/>
<path d="M168.715 303.041C168.087 303.041 166.831 303.041 166.204 302.413L161.809 299.904C161.181 299.904 161.181 299.276 161.181 299.276C161.181 299.276 161.181 299.276 161.809 298.649L174.364 291.12C174.992 291.12 175.62 290.492 176.248 290.492C176.876 290.492 178.131 290.492 178.759 291.12L183.153 293.629C183.781 293.629 183.781 294.257 183.781 294.257C183.781 294.257 183.781 294.257 183.153 294.884L170.598 302.413C169.97 303.041 169.342 303.041 168.715 303.041Z" fill="#3E4046"/>
<path d="M48.8105 358.268V409.089L76.4323 393.404V342.582L48.8105 358.268Z" fill="#A8B4B5"/>
<path d="M48.8109 358.264V409.085L35 401.556V350.107L48.8109 358.264Z" fill="#72898C"/>
<path d="M76.4326 342.578L48.8109 358.264L35 350.107L62.6217 334.422L76.4326 342.578Z" fill="#CED6D7"/>
<path d="M48.8108 386.502V406.579L75.177 391.521V371.443L48.8108 386.502Z" fill="#388FB5"/>
<path d="M48.8107 386.505V406.583L36.2554 399.681V379.604L48.8107 386.505Z" fill="#1B668C"/>
<path d="M75.1769 371.445L48.8107 386.503L36.2554 379.601L62.6216 364.543L75.1769 371.445Z" fill="#65C4D9"/>
<path d="M48.8105 358.268V409.089L76.4323 393.404V342.582L48.8105 358.268Z" fill="#3C575B"/>
<path d="M65.76 368.305V419.126L93.3817 403.441V352.619L65.76 368.305Z" fill="#A8B4B5"/>
<path d="M65.7603 368.301V419.123L51.9495 411.593V360.145L65.7603 368.301Z" fill="#72898C"/>
<path d="M93.382 352.616L65.7603 368.301L51.9495 360.145L79.5712 344.459L93.382 352.616Z" fill="#CED6D7"/>
<path d="M65.7603 396.539V416.616L92.1264 401.558V381.48L65.7603 396.539Z" fill="#B53853"/>
<path d="M65.7602 396.542V416.62L53.2048 409.718V389.641L65.7602 396.542Z" fill="#8C1B30"/>
<path d="M92.1263 381.482L65.7602 396.54L53.2048 389.638L79.571 374.58L92.1263 381.482Z" fill="#D9658B"/>
<path d="M65.76 368.305V419.126L93.3817 403.441V352.619L65.76 368.305Z" fill="#3C575B"/>
<path d="M82.7095 378.342V429.163L110.331 413.478V362.656L82.7095 378.342Z" fill="#A8B4B5"/>
<path d="M82.7098 378.338V429.16L68.8989 421.631V370.182L82.7098 378.338Z" fill="#72898C"/>
<path d="M110.332 362.653L82.7098 378.338L68.8989 370.182L96.5207 354.496L110.332 362.653Z" fill="#CED6D7"/>
<path d="M82.7097 406.576V427.281L109.076 412.223V391.518L82.7097 406.576Z" fill="#CC9B0A"/>
<path d="M82.7096 406.579V427.284L70.1543 419.755V399.678L82.7096 406.579Z" fill="#A37B00"/>
<path d="M109.076 391.519L82.7096 406.577L70.1543 399.675L96.5205 384.617L109.076 391.519Z" fill="#F0B31A"/>
<path d="M82.7095 378.342V429.163L110.331 413.478V362.656L82.7095 378.342Z" fill="#3C575B"/>
<path d="M99.6602 388.389V439.21L127.282 423.525V372.703L99.6602 388.389Z" fill="#A8B4B5"/>
<path d="M99.6604 388.385V439.207L85.8496 431.677V380.229L99.6604 388.385Z" fill="#72898C"/>
<path d="M127.282 372.7L99.6605 388.385L85.8496 380.229L113.471 364.543L127.282 372.7Z" fill="#CED6D7"/>
<path d="M99.6602 416.623V437.328L125.399 422.27V401.564L99.6602 416.623Z" fill="#261F21"/>
<path d="M99.6603 416.626V437.331L87.105 429.802V409.725L99.6603 416.626Z" fill="black"/>
<path d="M125.399 401.566L99.6603 416.624L87.105 409.722L113.471 394.664L125.399 401.566Z" fill="#474646"/>
<path d="M99.6602 388.389V439.21L127.282 423.525V372.703L99.6602 388.389Z" fill="#3C575B"/>
<path d="M239.653 380.217L227.097 387.746V384.609L239.653 377.08V380.217Z" fill="#AAB645"/>
<path d="M239.653 388.377L227.097 395.906V392.769L239.653 385.867V388.377Z" fill="#C27C00"/>
<path d="M279.829 207.055C291.756 213.956 311.845 213.956 323.772 207.055C335.7 200.153 335.7 188.859 323.772 181.958C311.845 175.056 291.756 175.056 279.829 181.958C267.901 188.859 267.901 200.153 279.829 207.055Z" fill="#CBCDD3"/>
</g>
<defs>
<filter id="filter0_d" x="0" y="0" width="560.88" height="508.378" filterUnits="userSpaceOnUse" color-interpolation-filters="sRGB">
<feFlood flood-opacity="0" result="BackgroundImageFix"/>
<feColorMatrix in="SourceAlpha" type="matrix" values="0 0 0 0 0 0 0 0 0 0 0 0 0 0 0 0 0 0 127 0"/>
<feOffset dx="-15" dy="20"/>
<feGaussianBlur stdDeviation="10"/>
<feColorMatrix type="matrix" values="0 0 0 0 0 0 0 0 0 0 0 0 0 0 0 0 0 0 0.25 0"/>
<feBlend mode="normal" in2="BackgroundImageFix" result="effect1_dropShadow"/>
<feBlend mode="normal" in="SourceGraphic" in2="effect1_dropShadow" result="shape"/>
</filter>
<linearGradient id="paint0_linear" x1="146.784" y1="208.139" x2="178.96" y2="159.402" gradientUnits="userSpaceOnUse">
<stop offset="0.00475104" stop-color="#171717"/>
<stop offset="0.0188358" stop-color="#191919"/>
<stop offset="0.0239093" stop-color="#202020"/>
<stop offset="0.0275242" stop-color="#2B2B2B"/>
<stop offset="0.0304285" stop-color="#3C3C3C"/>
<stop offset="0.0317764" stop-color="#474747"/>
<stop offset="0.435" stop-color="#494949"/>
<stop offset="0.4359" stop-color="#5F5F5F"/>
<stop offset="0.437" stop-color="#707070"/>
<stop offset="0.4383" stop-color="#7B7B7B"/>
<stop offset="0.4401" stop-color="#828282"/>
<stop offset="0.4452" stop-color="#848484"/>
<stop offset="0.4714" stop-color="#848484"/>
<stop offset="0.4792" stop-color="#6B6B6B"/>
<stop offset="0.9765" stop-color="#6B6B6B"/>
<stop offset="0.9843" stop-color="#808080"/>
</linearGradient>
</defs>
</svg>
