<svg width="50" height="50" viewBox="0 0 50 50" fill="none" xmlns="http://www.w3.org/2000/svg">
<circle cx="25" cy="25" r="24.5" stroke="#40404C"/>
<path d="M50 25C50 38.8071 38.8071 50 25 50C11.1929 50 0 38.8071 0 25C14.0978 25 21.1355 25 24.2831 25C21.946 25 23.501 24.9999 50 25ZM26.2135 25.0001C25.7222 25.0001 24.6449 25.0001 23.6807 25.0002C21.7309 25.0002 20.2438 25.0002 25 25.0002C29.8419 25.0002 28.2134 25.0002 26.2135 25.0001Z" fill="#40404C"/>
<path d="M50 25C50 38.8071 38.8071 50 25 50C11.1929 50 0 38.8071 0 25C14.0978 25 21.1355 25 24.2831 25C21.946 25 23.501 24.9999 50 25ZM26.2135 25.0001C25.7222 25.0001 24.6449 25.0001 23.6807 25.0002C21.7309 25.0002 20.2438 25.0002 25 25.0002C29.8419 25.0002 28.2134 25.0002 26.2135 25.0001Z" stroke="#40404C"/>
<path d="M9.01 31.74H9.72V34.07H13.03V31.74H13.74V37H13.03V34.68H9.72V37H9.01V31.74ZM18.128 37.05C17.6214 37.05 17.1647 36.9367 16.758 36.71C16.3514 36.4767 16.0314 36.1567 15.798 35.75C15.5647 35.3433 15.448 34.8833 15.448 34.37C15.448 33.8567 15.5647 33.3967 15.798 32.99C16.0314 32.5833 16.3514 32.2667 16.758 32.04C17.1647 31.8133 17.6214 31.7 18.128 31.7C18.6347 31.7 19.0914 31.8133 19.498 32.04C19.9047 32.2667 20.2214 32.5833 20.448 32.99C20.6814 33.3967 20.798 33.8567 20.798 34.37C20.798 34.8833 20.6814 35.3433 20.448 35.75C20.2214 36.1567 19.9047 36.4767 19.498 36.71C19.0914 36.9367 18.6347 37.05 18.128 37.05ZM18.128 36.42C18.5014 36.42 18.8347 36.3367 19.128 36.17C19.428 35.9967 19.6614 35.7533 19.828 35.44C19.9947 35.1267 20.078 34.77 20.078 34.37C20.078 33.97 19.9947 33.6133 19.828 33.3C19.6614 32.9867 19.428 32.7467 19.128 32.58C18.8347 32.4067 18.5014 32.32 18.128 32.32C17.7547 32.32 17.418 32.4067 17.118 32.58C16.8247 32.7467 16.5914 32.9867 16.418 33.3C16.2514 33.6133 16.168 33.97 16.168 34.37C16.168 34.77 16.2514 35.1267 16.418 35.44C16.5914 35.7533 16.8247 35.9967 17.118 36.17C17.418 36.3367 17.7547 36.42 18.128 36.42ZM25.8655 34.28C26.5788 34.4467 26.9355 34.8767 26.9355 35.57C26.9355 36.03 26.7655 36.3833 26.4255 36.63C26.0855 36.8767 25.5788 37 24.9055 37H22.5155V31.74H24.8355C25.4355 31.74 25.9055 31.8567 26.2455 32.09C26.5855 32.3233 26.7555 32.6567 26.7555 33.09C26.7555 33.3767 26.6755 33.6233 26.5155 33.83C26.3621 34.03 26.1455 34.18 25.8655 34.28ZM23.2055 34.08H24.7855C25.1921 34.08 25.5021 34.0033 25.7155 33.85C25.9355 33.6967 26.0455 33.4733 26.0455 33.18C26.0455 32.8867 25.9355 32.6667 25.7155 32.52C25.5021 32.3733 25.1921 32.3 24.7855 32.3H23.2055V34.08ZM24.8755 36.44C25.3288 36.44 25.6688 36.3667 25.8955 36.22C26.1221 36.0733 26.2355 35.8433 26.2355 35.53C26.2355 35.2167 26.1321 34.9867 25.9255 34.84C25.7188 34.6867 25.3921 34.61 24.9455 34.61H23.2055V36.44H24.8755ZM31.0095 33.6C31.6695 33.6067 32.1728 33.7533 32.5195 34.04C32.8661 34.3267 33.0395 34.74 33.0395 35.28C33.0395 35.84 32.8528 36.27 32.4795 36.57C32.1061 36.87 31.5728 37.0167 30.8795 37.01L28.7995 37V31.74H29.5095V33.58L31.0095 33.6ZM33.9195 31.74H34.6295V37H33.9195V31.74ZM30.8395 36.47C31.3261 36.4767 31.6928 36.38 31.9395 36.18C32.1928 35.9733 32.3195 35.6733 32.3195 35.28C32.3195 34.8933 32.1961 34.6067 31.9495 34.42C31.7028 34.2333 31.3328 34.1367 30.8395 34.13L29.5095 34.11V36.45L30.8395 36.47ZM36.851 31.74H37.561V35.92L41.071 31.74H41.701V37H40.991V32.82L37.491 37H36.851V31.74ZM39.241 30.98C38.7877 30.98 38.4277 30.8667 38.161 30.64C37.8943 30.4133 37.7577 30.0933 37.751 29.68H38.261C38.2677 29.94 38.361 30.15 38.541 30.31C38.721 30.4633 38.9543 30.54 39.241 30.54C39.5277 30.54 39.761 30.4633 39.941 30.31C40.1277 30.15 40.2243 29.94 40.231 29.68H40.741C40.7343 30.0933 40.5943 30.4133 40.321 30.64C40.0543 30.8667 39.6943 30.98 39.241 30.98Z" fill="white"/>
<path d="M10.108 11.6V12.368H12.088V20H12.952V11.6H10.108ZM18.5479 20.072C20.4919 20.072 21.9079 18.476 21.9079 15.8C21.9079 13.124 20.4919 11.528 18.5479 11.528C16.6039 11.528 15.1999 13.124 15.1999 15.8C15.1999 18.476 16.6039 20.072 18.5479 20.072ZM18.5479 19.28C17.0839 19.28 16.0759 18.044 16.0759 15.8C16.0759 13.556 17.0839 12.32 18.5479 12.32C20.0119 12.32 21.0199 13.556 21.0199 15.8C21.0199 18.044 20.0119 19.28 18.5479 19.28ZM26.7332 20.072C28.6772 20.072 30.0932 18.476 30.0932 15.8C30.0932 13.124 28.6772 11.528 26.7332 11.528C24.7892 11.528 23.3852 13.124 23.3852 15.8C23.3852 18.476 24.7892 20.072 26.7332 20.072ZM26.7332 19.28C25.2692 19.28 24.2612 18.044 24.2612 15.8C24.2612 13.556 25.2692 12.32 26.7332 12.32C28.1972 12.32 29.2052 13.556 29.2052 15.8C29.2052 18.044 28.1972 19.28 26.7332 19.28ZM33.3466 16.1C34.4626 16.1 35.2426 15.2 35.2426 13.82C35.2426 12.44 34.4626 11.54 33.3466 11.54C32.2186 11.54 31.4506 12.452 31.4506 13.82C31.4506 15.188 32.2186 16.1 33.3466 16.1ZM32.6986 20H33.4066L39.1426 11.6H38.4346L32.6986 20ZM33.3466 15.56C32.5546 15.56 32.0506 14.9 32.0506 13.82C32.0506 12.74 32.5546 12.08 33.3466 12.08C34.1266 12.08 34.6426 12.728 34.6426 13.82C34.6426 14.912 34.1266 15.56 33.3466 15.56ZM38.4946 20.06C39.6226 20.06 40.3906 19.148 40.3906 17.78C40.3906 16.412 39.6226 15.5 38.4946 15.5C37.3786 15.5 36.5986 16.412 36.5986 17.78C36.5986 19.148 37.3786 20.06 38.4946 20.06ZM38.4946 19.52C37.7146 19.52 37.1986 18.872 37.1986 17.78C37.1986 16.688 37.7146 16.04 38.4946 16.04C39.2866 16.04 39.7906 16.7 39.7906 17.78C39.7906 18.86 39.2866 19.52 38.4946 19.52Z" fill="#40404C"/>
</svg>
