<svg width="50" height="50" viewBox="0 0 50 50" fill="none" xmlns="http://www.w3.org/2000/svg">
<circle cx="25" cy="25" r="24.5" stroke="#40404C"/>
<path d="M11.88 29.06C13.524 29.06 14.484 28.352 14.484 27.26C14.484 24.836 10.392 26.12 10.392 24.416C10.392 23.816 10.896 23.372 12.036 23.372C12.684 23.372 13.344 23.528 13.896 23.912L14.268 23.228C13.74 22.868 12.852 22.64 12.036 22.64C10.428 22.64 9.54 23.408 9.54 24.44C9.54 26.936 13.632 25.64 13.632 27.284C13.632 27.908 13.14 28.316 11.94 28.316C11.052 28.316 10.2 28.004 9.696 27.608L9.312 28.28C9.828 28.724 10.836 29.06 11.88 29.06ZM19.3231 28.004C19.0831 28.22 18.7351 28.328 18.3871 28.328C17.6791 28.328 17.2951 27.92 17.2951 27.176V23.408H19.2151V22.688H17.2951V21.308H16.4431V22.688H15.3151V23.408H16.4431V27.224C16.4431 28.388 17.1031 29.06 18.2911 29.06C18.7831 29.06 19.2871 28.916 19.6231 28.616L19.3231 28.004ZM29.2861 22.64C28.1461 22.64 27.2461 23.156 26.7901 23.972C26.4061 23.084 25.5901 22.64 24.5461 22.64C23.4901 22.64 22.6741 23.084 22.2301 23.84V22.688H21.4141V29H22.2661V25.688C22.2661 24.248 23.0941 23.408 24.3781 23.408C25.5301 23.408 26.2021 24.092 26.2021 25.424V29H27.0541V25.688C27.0541 24.248 27.8701 23.408 29.1661 23.408C30.3061 23.408 30.9781 24.092 30.9781 25.424V29H31.8301V25.34C31.8301 23.528 30.8221 22.64 29.2861 22.64ZM37.0201 29.06C38.0881 29.06 38.9881 28.628 39.4921 27.812L38.8561 27.38C38.4241 28.016 37.7521 28.304 37.0201 28.304C35.6401 28.304 34.6321 27.332 34.6321 25.844C34.6321 24.368 35.6401 23.384 37.0201 23.384C37.7521 23.384 38.4241 23.684 38.8561 24.32L39.4921 23.888C38.9881 23.06 38.0881 22.64 37.0201 22.64C35.1361 22.64 33.7681 23.96 33.7681 25.844C33.7681 27.728 35.1361 29.06 37.0201 29.06Z" fill="#40404C"/>
</svg>
